inDegrees=yes
name=ik_MT_2026-08-11_12h33_01210270-000-000_orientations
DataType=double
version=3
OpenSimVersion=4.5
endheader
time	pelvis_tilt	pelvis_list	pelvis_rotation	pelvis_tx	pelvis_ty	pelvis_tz	hip_flexion_r	hip_adduction_r	hip_rotation_r	knee_angle_r	knee_angle_r_beta	ankle_angle_r	subtalar_angle_r	mtp_angle_r	hip_flexion_l	hip_adduction_l	hip_rotation_l	knee_angle_l	knee_angle_l_beta	ankle_angle_l	subtalar_angle_l	mtp_angle_l	lumbar_extension	lumbar_bending	lumbar_rotation	arm_flex_r	arm_add_r	arm_rot_r	elbow_flex_r	pro_sup_r	wrist_flex_r	wrist_dev_r	arm_flex_l	arm_add_l	arm_rot_l	elbow_flex_l	pro_sup_l	wrist_flex_l	wrist_dev_l
0	0.05283214641477003	-0.0346528753639123	159.8489494469388	0	0.9399999999999999	0	0.07436800603343945	-0.009515611801948763	-0.00801787277815286	-0.004580782890200745	-7.99497437530249e-05	-0.02168349080097258	0	0	0.05157405517844401	0.005093493282343226	0.009281746560014818	-0.01990750528769548	-0.0003474515131284672	-0.02637609959480097	0	0	0.07653068647868343	-0.01631160030955344	0.004805061510777569	-0.4288148356985895	-0.1197531175944368	-0.009965575170599936	0.8465273605438254	15.17231718597688	0	0	-0.4310477668734922	-0.1112894767690277	-0.01907148947905133	0.8492935506093385	15.17231718597688	0	0
0.025	0.01587393378537108	-0.0319787741167798	159.7967998449643	0	0.9399999999999999	0	0.03605162976700945	-0.02251870797689673	0.07024721925670198	0.01110654657284022	0.0001938458062221541	-0.004415689177962041	0	0	0.02329479437070481	0.01938917907820285	-0.02375514307539368	-0.003399959312129131	-5.934048443049492e-05	0.01330311268221269	0	0	0.0377944509905803	0.02889031269955866	-0.09602111832137253	-0.3606395178811017	-0.14508999136563	0.1052493603809704	0.8444328777579884	19.79818429392391	0	0	-0.3796901655924676	-0.1328154884956027	-0.09161951890766287	0.833853089581545	19.79818429392391	0	0
0.05	-0.02979209555579501	-0.0250491350228409	159.7595303386587	0	0.9399999999999999	0	0.003232853747040679	-0.05071364891527401	0.1170491440795469	0.0373988501530948	0.0006527330716314897	0.001187196404773765	0	0	-0.01927507630943923	0.05535291626145988	-0.02970046562281285	0.006811111616669857	0.0001188763234317229	0.0318702140467516	0	0	0.131693161960462	0.08872629309846916	-0.09543032430321836	-0.461678464322447	-0.201562980056617	0.1245764014975385	0.8453891720325969	23.90606136405567	0	0	-0.4674597426353	-0.1502363065585063	-0.06360624385280021	0.8300655203443245	23.90606136405567	0	0
0.075	-0.06808797188069521	-0.03215511780459743	159.7390024529577	0	0.9399999999999999	0	-0.03890787249403475	-0.05883406546784762	0.1430538457978554	0.03698331050958444	0.0006454805366796702	0.03827294242639522	0	0	-0.08200934546346682	0.07197387603743931	-0.04960109679002827	0.005510655355154645	9.617907989010603e-05	0.06609091012001236	0	0	0.2701656957052115	0.1202311446293087	-0.08082463679174835	-0.6012797186311295	-0.2358012119871075	0.1235044347828081	0.8630300619799653	27.37094594465292	0	0	-0.6045596667711421	-0.1108442162150705	0.008145099400928045	0.8280559857944008	27.37094594465292	0	0
0.1	-0.1082324565537875	-0.02843039831006483	159.7339360877389	0	0.9399999999999999	0	-0.1065154458034105	-0.0736239997907933	0.1741543680242094	0.02639952654383932	0.0004607586591576353	0.09939667394597139	0	0	-0.1435588405466328	0.09047650311089084	-0.03854080425026004	0.01813152913701746	0.0003164548818622408	0.1321679298832017	0	0	0.2593730314287234	0.1713214286158469	-0.05160615383167733	-0.5925073718127853	-0.2945437264653059	0.07656092454895634	0.8578169928425302	30.14555312665758	0	0	-0.609796305679511	-0.09443271775767606	0.1430371646825257	0.8324718491941862	30.14555312665758	0	0
0.125	-0.1311515219774786	-0.01755457517492004	159.7411077386271	0	0.9399999999999999	0	-0.13972698128057	-0.08073854557582147	0.1886715656956776	0.0320529370998001	0.000559429287326154	0.1094971249237109	0	0	-0.155012794642195	0.09454766699892003	-0.03700403667111471	0.04234867497696135	0.0007391238122049093	0.1577544923565658	0	0	0.2407374695814452	0.218676831068872	-0.02725240186099792	-0.538464898745027	-0.3221290809961114	-0.0008303750953164229	0.8356260114153965	32.5698015242673	0	0	-0.5670522705036211	-0.06912795146220042	0.2919811782497139	0.8228602202357586	32.5698015242673	0	0
0.15	-0.1470908104892907	-0.01855841163423528	159.7544783419549	0	0.9399999999999999	0	-0.1684431987708114	-0.09971072549273417	0.1959896978926178	0.02934312683156928	0.0005121341760411755	0.1589932022038237	0	0	-0.1950951882437888	0.1106741391316234	-0.02812805515785795	0.05263344614362978	0.0009186269318774518	0.2087761568494878	0	0	0.3180195650058385	0.2637858151834024	-0.0191466206337847	-0.5727563325651309	-0.3220580151060131	-0.03806321200914388	0.8747077844596842	34.60781563234891	0	0	-0.6299736938357624	-0.06076658258730709	0.4206851759261762	0.8278375018710855	34.60781563234891	0	0
0.175	-0.1964147135096589	-0.007778276886616583	159.7737071172446	0	0.9399999999999999	0	-0.2115079078183303	-0.1191257355504902	0.1746667545821766	0.05066108518349181	0.0008842027390852478	0.1590860095822736	0	0	-0.233879023237094	0.1261103651682898	-0.03614028614009263	0.0796427093728569	0.001390027503765301	0.2145680057592239	0	0	0.3859424045331312	0.3116889297522948	0.0004124425823346682	-0.6163535796609275	-0.3098405678180436	-0.09488731748999392	0.9024221840864375	36.29123486939614	0	0	-0.703269142287018	-0.03954825515040858	0.5316149427411537	0.8465746835752131	36.29123486939614	0	0
0.2	-0.2072549849063404	0.005233983516425122	159.7883485515619	0	0.9399999999999999	0	-0.2117947248733029	-0.1297642196291874	0.1888927336392363	0.0563939271598008	0.0009842597070683784	0.1448142921754084	0	0	-0.2250916311280452	0.1186334339173493	0.00392524586060583	0.1022767600331881	0.001785066210851277	0.2011676802426715	0	0	0.3149241201707402	0.3717518609511581	0.02992505494429664	-0.4518857600882115	-0.3488675783536283	-0.1342841464925234	0.8344080756062815	37.7377867013486	0	0	-0.5432084076436658	-0.0570144864443336	0.6214646733921888	0.8041925243361807	37.7377867013486	0	0
0.225	-0.2242176438568196	0.008226592092376609	159.8021453288519	0	0.9399999999999999	0	-0.2643105429516076	-0.1296528033021603	0.1801165450762714	0.03596355881005039	0.0006276825119699933	0.1495657615023678	0	0	-0.2505654546750652	0.1221470122275948	0.009417018354035482	0.08122803945646402	0.001417696733455162	0.218005777636511	0	0	0.4227605942944596	0.4003938989727359	0.05276517241906874	-0.5227847718269426	-0.3564774099802906	-0.1623725358124591	0.8207696026750351	38.91677814093991	0	0	-0.6059662201180382	-0.06184977654542242	0.6984694072018108	0.7953196462958557	38.91677814093991	0	0
0.25	-0.2644457414660366	0.01970768886421882	159.7973475339897	0	0.9399999999999999	0	-0.3065791609204627	-0.1287174565439915	0.1928513179217326	0.04753737332708817	0.0008296836823074199	0.1800471037084478	0	0	-0.3031341679349671	0.1289717888511134	0.03133009121941659	0.08268330334188996	0.001443095879741211	0.2546550032330328	0	0	0.4652639191626757	0.4440164608857025	0.09410638869544925	-0.5286895144451852	-0.415555630006377	-0.1512496252964936	0.8290592324886447	39.87807182791474	0	0	-0.6518670412570893	-0.08965068401843417	0.7867474432621521	0.7933075653797083	39.87807182791474	0	0
0.275	-0.309063751891521	0.03096165773363937	159.7910139429021	0	0.9399999999999999	0	-0.3496798039708182	-0.1472212154210667	0.1894336344648822	0.06082130998560478	0.001061532114624908	0.1853788998280207	0	0	-0.3541831337725063	0.1432373501046788	0.05173507530558365	0.09278185888686739	0.001619348923696597	0.2674330239987909	0	0	0.5234847001985974	0.4807634697562562	0.1228862232964314	-0.4948694196282077	-0.4414965836383224	-0.1022420769962361	0.8337670180434321	39.87960164806557	0	0	-0.6965038107868342	-0.1355975244069171	0.8452999347600176	0.770223876677388	39.87960164806557	0	0
0.3	-0.4011903841935214	0.0777696807421495	159.7528136301708	0	0.9399999999999999	0	-0.4574116828701485	-0.1363774709352458	0.2014223051302316	0.08559194095886674	0.001493861182904817	0.2365916229548242	0	0	-0.4950788285981556	0.1219710578635344	0.03242354674225122	0.08065420876708683	0.001407681498576541	0.350910733088744	0	0	0.8213086591578075	0.5727412397070977	0.1908153453512461	-0.7906666910580032	-0.4631327496084313	-0.003379783543741896	0.8732992283401542	39.88949183153824	0	0	-1.059993737419378	-0.1676537955332021	0.9469537344209464	0.7324676131351406	39.88949183153824	0	0
0.325	-0.4243966151693128	0.1038710640783602	159.710389493006	0	0.9399999999999999	0	-0.4758944663282442	-0.1386283203784187	0.2261843636003484	0.1054821184820444	0.001841010269490439	0.2461266416158933	0	0	-0.5422054600317312	0.1204347825827168	0.02041631562631663	0.08161466255465516	0.001424444579482859	0.3658371454221207	0	0	1.136835366610358	0.6926383630205899	0.2898644540773213	-1.131193279746763	-0.4058221012782866	0.2032788855291731	1.015429721150743	39.90122150972844	0	0	-1.327038894048252	-0.2382108979486413	1.055238097483171	0.7152449553852908	39.90122150972844	0	0
0.35	-0.4496604722569496	0.1115128641698527	159.6593226101873	0	0.9399999999999999	0	-0.4854534696114348	-0.1467913569677305	0.2595658213705569	0.1355612990645279	0.002365991006956721	0.2539618206942205	0	0	-0.5797476597655226	0.122654126205725	0.004096815062739751	0.08979088957644145	0.00156714666140356	0.4030075186358695	0	0	1.374540168398275	0.8054249096560233	0.3627648488824562	-1.496963677495693	-0.2898483251287812	0.5062983651526811	1.196176666392253	39.90964577131124	0	0	-1.486533662024767	-0.3124788866981423	1.145503354251724	0.6838779492754935	39.90964577131124	0	0
